<svg id="Livello_2" data-name="Livello 2" xmlns="http://www.w3.org/2000/svg" viewBox="0 0 566.93 159.72"><defs><style>.cls-1{fill-rule:evenodd;}</style></defs><path class="cls-1" d="M16.46,148.14c1.24,0,1.37,0,1.82,1.2l2.08,6c.58,1.91.45,2.18-1.15,2.35l-1,.15a1,1,0,0,0,.14,1.27c1.55,0,3.5-.13,5.41-.13,2.31,0,3.95.05,5.77.13a.93.93,0,0,0-.05-1.27l-.66-.15c-2.27-.39-2.48-.7-3.5-3.68l-6.4-18.6c-.71-2-1.28-4.08-2-6.08a.89.89,0,0,0-.75-.35c-.09,0-1.55,1.82-3.11,2.13a6.92,6.92,0,0,1-.84,3.24l-6.08,15.8c-.93,2.4-1.64,4.26-2.18,5.41-.66,1.47-1.15,1.87-2.44,2l-1.33.24a1,1,0,0,0,.05,1.27c1.55-.08,2.93-.13,4.39-.13,1.82.05,3.28.05,4.7.13.36-.17.41-1,.09-1.27l-1.28-.24c-1.65-.22-1.82-.35-.94-3l1.83-5.32c.39-1.2.35-1.2,1.5-1.2Zm-5.2-2c-1.06,0-1.2,0-.71-1.28l1.87-5.2c.8-2.08,1.15-3.19,1.33-3.5h.09a21.91,21.91,0,0,1,1.24,3.5L16.94,145c.36,1.08.18,1.16-1.06,1.16Z" transform="translate(0 0)"/><path d="M36.38,159.64c3.51,0,6.93-1.7,6.93-5.55,0-3.51-2.53-5-4.93-6.17-1.69-.8-3-1.73-3-3a2.36,2.36,0,0,1,2.48-2.31c1.73,0,3.15,1.69,3.82,3.73a.89.89,0,0,0,1.19-.22,10.46,10.46,0,0,0-.66-4.31,9.74,9.74,0,0,0-4.13-.89c-3.68,0-6.65,2-6.61,5.51,0,2.84,2.4,4.48,4.7,5.59,1.56.76,3,1.82,3,3.46a2.37,2.37,0,0,1-2.48,2.48c-2.36,0-4-2.35-4.79-4.83a.91.91,0,0,0-1.25.08,12.82,12.82,0,0,0,.62,5,8.31,8.31,0,0,0,5.06,1.43" transform="translate(0 0)"/><path d="M51.73,159.64c3.51,0,6.93-1.7,6.93-5.55,0-3.51-2.54-5-4.93-6.17-1.69-.8-3-1.73-3-3a2.37,2.37,0,0,1,2.49-2.31c1.73,0,3.15,1.69,3.81,3.73.32.26,1.07.13,1.2-.22a10.46,10.46,0,0,0-.66-4.31,9.74,9.74,0,0,0-4.13-.89c-3.68,0-6.66,2-6.61,5.51,0,2.84,2.4,4.48,4.71,5.59,1.55.76,3,1.82,3,3.46a2.37,2.37,0,0,1-2.48,2.48c-2.35,0-4-2.35-4.8-4.83a.9.9,0,0,0-1.24.08,12.82,12.82,0,0,0,.62,5,8.31,8.31,0,0,0,5.06,1.43" transform="translate(0 0)"/><path class="cls-1" d="M70.94,140.91a9.43,9.43,0,0,0-9.72,9.67c0,5.82,4.26,9.06,9.36,9.06,5.29,0,9.73-3.29,9.73-9.59,0-5.77-4.35-9.14-9.37-9.14m-4.48,9c0-4.92,1.78-7.23,4-7.23,3.28,0,4.57,4.4,4.57,8.12,0,3.42-.89,7.06-3.95,7.06s-4.66-3.9-4.66-8" transform="translate(0 0)"/><path d="M94,140.91c-7.14,0-10.92,4.74-10.92,9.94a8.51,8.51,0,0,0,8.74,8.79,8.29,8.29,0,0,0,7.81-4.84.88.88,0,0,0-.93-.81c-.88,1.29-1.9,2.36-4.79,2.36-4,0-6.34-3.42-6.34-7,0-4.17,2.61-6.66,5.14-6.66,1.73,0,3.07,1.42,4,2.71a1,1,0,0,0,.85.49c.35,0,1.1-.67,1.1-2.09a2.92,2.92,0,0,0-.88-2.27,11.4,11.4,0,0,0-3.82-.61" transform="translate(0 0)"/><path class="cls-1" d="M108,146.06c0-1.83.05-3.95.13-5.42a.83.83,0,0,0-.62-.36,26.1,26.1,0,0,1-5.77,2.4,1.15,1.15,0,0,0,0,1l.53.32c1.11.66,1.11,1.19,1.11,3.18v6.53c0,3.29-.18,3.77-1.69,4l-.79.14c-.32.31-.28,1.11.08,1.28,1.69-.08,3.2-.12,4.66-.12,1.65,0,3.15,0,4.8.12.35-.17.39-1,.09-1.28l-.8-.14c-1.51-.22-1.69-.7-1.69-4Zm-2.35-11a2.8,2.8,0,1,0-2.85-2.8,2.72,2.72,0,0,0,2.85,2.8" transform="translate(0 0)"/><path class="cls-1" d="M126.84,146.45c.18-3.91-2-5.54-5.5-5.54a12.16,12.16,0,0,0-6.84,2.79c-1.46,1.38-1.73,2.3-1.73,2.84s.27.71.85.71a6.12,6.12,0,0,0,2.84-.8,1.91,1.91,0,0,0,.84-1.59,2.18,2.18,0,0,1,2.35-2c2.18,0,2.79,2,2.71,4.22l0,1.15c0,.45-.13.84-1,1.15-1.64.63-3.33,1.25-4.88,1.78-3.06,1.07-3.68,2.53-3.68,4.13a4.21,4.21,0,0,0,4.52,4.31,7.16,7.16,0,0,0,3.77-1.16c.67-.4,1-.61,1.2-.61s.41.21.71.52a4.26,4.26,0,0,0,3.2,1.25,6.14,6.14,0,0,0,4.44-2c.13-.4-.18-.89-.4-.89a4,4,0,0,1-1.51.49c-1.6,0-2.26-1.33-2.13-3.9Zm-4.75,8.61a2,2,0,0,1-2.13,2.13,2.48,2.48,0,0,1-2.48-2.57c0-1.91,1.15-2.53,2.39-3a7.34,7.34,0,0,1,2-.54c.22,0,.35.27.35.76Z" transform="translate(0 0)"/><path d="M140.73,159c2,0,3.51,0,5.1.13a17.32,17.32,0,0,0,1.65-5.42.9.9,0,0,0-1.2-.22,7.92,7.92,0,0,1-1.78,2.66,5.49,5.49,0,0,1-3.77,1.07h-1.47c-1.28,0-1.73-.09-1.73-.32a3.72,3.72,0,0,1,.62-1.37l4.93-8.61a55.15,55.15,0,0,1,3.2-5,.52.52,0,0,0-.32-.54,20.58,20.58,0,0,1-2.7.13h-7.33c-2.26,0-2.74,0-2.92-.79a.81.81,0,0,0-.8,0,33.71,33.71,0,0,0-1.47,5.54.92.92,0,0,0,1.2.31,10.07,10.07,0,0,1,1.78-2.66,4.65,4.65,0,0,1,3-.62h2.17c.58,0,1,0,1,.22a3.18,3.18,0,0,1-.58,1.24L135,152.27c-1.2,2.13-3.19,5.28-3.95,6.3a.47.47,0,0,0,.31.58c1.25-.09,3-.13,5.37-.13Z" transform="translate(0 0)"/><path class="cls-1" d="M155.81,146.06c0-1.83,0-3.95.13-5.42a.85.85,0,0,0-.62-.36,26.1,26.1,0,0,1-5.77,2.4,1.15,1.15,0,0,0,0,1l.53.32c1.11.66,1.11,1.19,1.11,3.18v6.53c0,3.29-.18,3.77-1.69,4l-.8.14c-.31.31-.26,1.11.09,1.28,1.69-.08,3.2-.12,4.66-.12,1.64,0,3.15,0,4.8.12.35-.17.4-1,.08-1.28l-.79-.14c-1.51-.22-1.69-.7-1.69-4Zm-2.35-11a2.8,2.8,0,1,0-2.84-2.8,2.72,2.72,0,0,0,2.84,2.8" transform="translate(0 0)"/><path class="cls-1" d="M170.22,140.91a9.43,9.43,0,0,0-9.72,9.67c0,5.82,4.26,9.06,9.36,9.06,5.29,0,9.73-3.29,9.73-9.59,0-5.77-4.35-9.14-9.37-9.14m-4.48,9c0-4.92,1.77-7.23,4-7.23,3.28,0,4.57,4.4,4.57,8.12,0,3.42-.89,7.06-3.95,7.06s-4.66-3.9-4.66-8" transform="translate(0 0)"/><path d="M189.52,147.79c0-1.65,0-2,.62-2.85a3.65,3.65,0,0,1,2.93-1.37c2.66,0,3.55,1.78,3.55,4v6.12c0,3.29-.18,3.78-1.69,4l-.66.1a.94.94,0,0,0,.09,1.28c1.55-.09,3-.13,4.53-.13,1.63,0,3.15,0,5,.13a.93.93,0,0,0,.09-1.28l-1-.15c-1.5-.21-1.68-.7-1.68-4v-6.88c0-3.46-1.69-5.94-5.28-5.94-2.75,0-4,1.06-6.08,2.22-.26,0-.4-.14-.4-.45a19.59,19.59,0,0,1,.09-2,.62.62,0,0,0-.58-.36,30.42,30.42,0,0,1-5.77,2.4,1.22,1.22,0,0,0,0,1l.53.31c1.11.67,1.11,1.2,1.11,3.2v6.52c0,3.29-.18,3.78-1.69,4l-1,.15a1,1,0,0,0,.08,1.28c1.87-.09,3.38-.13,4.8-.13,1.64,0,3.15,0,4.7.13a.94.94,0,0,0,.09-1.28l-.66-.1c-1.51-.26-1.69-.75-1.69-4Z" transform="translate(0 0)"/><path class="cls-1" d="M218.72,148.49c1.77,0,2.79-.18,3.06-.57a2,2,0,0,0,.22-1c0-3.86-3.38-6-6.66-6-6,0-9.36,4.84-9.36,9.86s3.41,8.88,8.57,8.88a8,8,0,0,0,7.49-4.89.86.86,0,0,0-1-.71,4.58,4.58,0,0,1-4.26,2.22c-3.94,0-6.7-3.2-6.7-7.19,0-.53.09-.58.94-.58Zm-7.65-1.77c-.52,0-.61-.14-.61-.31a4.54,4.54,0,0,1,4.35-3.82,2.73,2.73,0,0,1,2.93,2.88,1.12,1.12,0,0,1-.45.94,4.74,4.74,0,0,1-2.17.31Z" transform="translate(0 0)"/><path d="M244.49,136.11c0-4.71.39-4.83,2.49-5.1l1-.14c.31-.3.26-1.11-.09-1.28-2,.09-4,.13-5.9.13s-4,0-6-.13c-.35.17-.39,1-.08,1.28l1,.14c2.07.27,2.48.39,2.48,5.1v16.51c0,4.71-.41,4.84-2.48,5.1l-1,.14c-.31.31-.27,1.11.08,1.29,2-.09,4-.13,6-.13s3.94,0,5.9.13a1,1,0,0,0,.09-1.29l-1-.14c-2.1-.26-2.49-.39-2.49-5.1Z" transform="translate(0 0)"/><path d="M262.14,143.48a1.4,1.4,0,0,0,.57-1.16c0-.44-.08-.8-.35-.93H258c-.85,0-.85-.13-.85-.84v-2.66a1,1,0,0,0-1.25-.23,8.19,8.19,0,0,1-2.43,2.76,14.83,14.83,0,0,1-3.51,1.86.73.73,0,0,0,.14,1.2h1.55c.71,0,.79,0,.79,1.6v9c0,3.1.76,5.55,5,5.55a6.92,6.92,0,0,0,5.63-2.45.69.69,0,0,0-.57-.89,3.41,3.41,0,0,1-2.13.81c-2.84,0-3.24-2.49-3.24-5.29V145c0-1.42,0-1.51.84-1.51Z" transform="translate(0 0)"/><path class="cls-1" d="M278.46,146.45c.17-3.91-2-5.54-5.5-5.54a12.1,12.1,0,0,0-6.83,2.79c-1.47,1.38-1.74,2.3-1.74,2.84s.27.71.84.71a6.16,6.16,0,0,0,2.85-.8,1.88,1.88,0,0,0,.83-1.59,2.2,2.2,0,0,1,2.36-2c2.17,0,2.8,2,2.7,4.22l0,1.15c0,.45-.13.84-1,1.15-1.64.63-3.32,1.25-4.87,1.78-3.07,1.07-3.69,2.53-3.69,4.13a4.21,4.21,0,0,0,4.53,4.31,7.12,7.12,0,0,0,3.76-1.16c.68-.4,1-.61,1.2-.61s.41.21.72.52a4.22,4.22,0,0,0,3.19,1.25,6.14,6.14,0,0,0,4.44-2c.13-.4-.17-.89-.4-.89a4.17,4.17,0,0,1-1.51.49c-1.6,0-2.26-1.33-2.14-3.9Zm-4.75,8.61a2,2,0,0,1-2.13,2.13,2.49,2.49,0,0,1-2.48-2.57c0-1.91,1.15-2.53,2.39-3a7.39,7.39,0,0,1,1.95-.54c.22,0,.36.27.36.76Z" transform="translate(0 0)"/><path d="M285,153.73c0,3.29-.18,3.77-1.69,4l-.94.14c-.3.31-.25,1.11.1,1.28,1.82-.08,3.32-.12,4.79-.12,1.64,0,3.15,0,5,.12.36-.17.4-1,.08-1.28l-1-.14c-1.51-.22-1.68-.7-1.68-4V134.07c0-1.91,0-4.66.13-6.44a.6.6,0,0,0-.62-.35c-1.78.71-4.09,1.64-5.82,2.13-.31.14-.26.84,0,1l.49.32c1.11.65,1.16,1,1.16,3.94Z" transform="translate(0 0)"/><path class="cls-1" d="M301.57,146.06c0-1.83.05-3.95.13-5.42a.83.83,0,0,0-.62-.36,26.1,26.1,0,0,1-5.77,2.4,1.12,1.12,0,0,0,0,1l.52.32c1.11.66,1.11,1.19,1.11,3.18v6.53c0,3.29-.17,3.77-1.68,4l-.81.14c-.31.31-.26,1.11.1,1.28,1.69-.08,3.19-.12,4.65-.12,1.65,0,3.15,0,4.8.12.35-.17.4-1,.08-1.28l-.8-.14c-1.5-.22-1.68-.7-1.68-4Zm-2.35-11a2.8,2.8,0,1,0-2.84-2.8,2.72,2.72,0,0,0,2.84,2.8" transform="translate(0 0)"/><path class="cls-1" d="M320.42,146.45c.18-3.91-2-5.54-5.49-5.54a12.16,12.16,0,0,0-6.85,2.79c-1.46,1.38-1.73,2.3-1.73,2.84s.27.71.85.71a6,6,0,0,0,2.83-.8,1.89,1.89,0,0,0,.85-1.59,2.18,2.18,0,0,1,2.35-2c2.18,0,2.8,2,2.71,4.22l0,1.15c0,.45-.14.84-1,1.15-1.64.63-3.33,1.25-4.87,1.78-3.07,1.07-3.7,2.53-3.7,4.13a4.22,4.22,0,0,0,4.54,4.31,7.22,7.22,0,0,0,3.77-1.16c.66-.4,1-.61,1.19-.61s.4.21.71.52a4.27,4.27,0,0,0,3.2,1.25,6.14,6.14,0,0,0,4.44-2c.13-.4-.18-.89-.4-.89a4,4,0,0,1-1.51.49c-1.6,0-2.27-1.33-2.12-3.9Zm-4.75,8.61a2,2,0,0,1-2.13,2.13,2.49,2.49,0,0,1-2.48-2.57c0-1.91,1.16-2.53,2.4-3a7.2,7.2,0,0,1,2-.54c.22,0,.35.27.35.76Z" transform="translate(0 0)"/><path d="M332.1,147.79c0-1.65,0-2,.61-2.85a3.65,3.65,0,0,1,2.93-1.37c2.67,0,3.55,1.78,3.55,4v6.12c0,3.29-.17,3.78-1.69,4l-.66.1a.94.94,0,0,0,.09,1.28c1.55-.09,3.06-.13,4.52-.13,1.65,0,3.15,0,5,.13a1,1,0,0,0,.1-1.28l-1-.15c-1.51-.21-1.68-.7-1.68-4v-6.88c0-3.46-1.7-5.94-5.29-5.94-2.75,0-4,1.06-6.08,2.22-.27,0-.39-.14-.39-.45a19.59,19.59,0,0,1,.09-2,.63.63,0,0,0-.59-.36,30.15,30.15,0,0,1-5.77,2.4,1.15,1.15,0,0,0,0,1l.53.31c1.11.67,1.11,1.2,1.11,3.2v6.52c0,3.29-.18,3.78-1.69,4l-1,.15a1,1,0,0,0,.1,1.28c1.86-.09,3.37-.13,4.8-.13,1.63,0,3.14,0,4.69.13a1,1,0,0,0,.09-1.28l-.67-.1c-1.5-.26-1.67-.75-1.67-4Z" transform="translate(0 0)"/><path class="cls-1" d="M362.71,146.45c.17-3.91-2-5.54-5.5-5.54a12.22,12.22,0,0,0-6.85,2.79c-1.45,1.38-1.72,2.3-1.72,2.84s.27.71.85.71a6.07,6.07,0,0,0,2.83-.8,1.89,1.89,0,0,0,.85-1.59,2.18,2.18,0,0,1,2.35-2c2.18,0,2.79,2,2.71,4.22l-.05,1.15c0,.45-.14.84-1,1.15-1.64.63-3.33,1.25-4.88,1.78-3.07,1.07-3.69,2.53-3.69,4.13a4.21,4.21,0,0,0,4.53,4.31,7.19,7.19,0,0,0,3.77-1.16c.67-.4,1-.61,1.19-.61s.41.21.72.52a4.26,4.26,0,0,0,3.2,1.25,6.14,6.14,0,0,0,4.44-2c.13-.4-.18-.89-.41-.89a4,4,0,0,1-1.5.49c-1.6,0-2.27-1.33-2.13-3.9ZM358,155.06a2,2,0,0,1-2.13,2.13,2.49,2.49,0,0,1-2.49-2.57c0-1.91,1.16-2.53,2.4-3a7.34,7.34,0,0,1,2-.54c.21,0,.34.27.34.76Z" transform="translate(0 0)"/><path d="M387.37,159.72c6.44,0,10.29-3.59,10.29-8.65,0-4.49-3.19-7.23-6.07-8.75l-2.75-1.46c-2.93-1.55-4.22-3.55-4.22-5.42,0-2.35,1.47-4.66,5-4.66,3.77,0,5.32,3,6,5.29a1.07,1.07,0,0,0,1.42-.14,18.59,18.59,0,0,0-.93-6A30.06,30.06,0,0,0,390,129c-6.48,0-9.76,3.73-9.76,8.13,0,4,2.93,6.7,6.26,8.56l1.91,1.06c3.32,1.87,4.52,3.91,4.52,6.43,0,2.71-1.9,4.75-5.27,4.75-4.36,0-6.75-4.75-7.55-7a1,1,0,0,0-1.37.17c0,2.76.53,5.81,1.32,6.75a13.47,13.47,0,0,0,7.28,1.86" transform="translate(0 0)"/><path class="cls-1" d="M410.05,140.91a9.43,9.43,0,0,0-9.72,9.67c0,5.82,4.27,9.06,9.36,9.06,5.29,0,9.72-3.29,9.72-9.59,0-5.77-4.34-9.14-9.36-9.14m-4.48,9c0-4.92,1.78-7.23,4-7.23,3.28,0,4.57,4.4,4.57,8.12,0,3.42-.89,7.06-3.95,7.06s-4.66-3.9-4.66-8" transform="translate(0 0)"/><path d="M424.69,153.73c0,3.29-.17,3.77-1.68,4l-.81.14c-.31.31-.26,1.11.1,1.28,1.68-.08,3.14-.12,4.61-.12,1.64,0,3.15,0,4.7.12.36-.17.4-1,.09-1.28l-.67-.09c-1.51-.27-1.69-.75-1.69-4v-5.94c0-1.74.05-2.14.59-2.85a4,4,0,0,1,3.15-1.37c2.57,0,3.37,1.78,3.37,4.13v6c0,3.29-.18,3.77-1.69,4l-.57.09c-.31.31-.27,1.11.09,1.28,1.45-.08,3-.12,4.44-.12,1.64,0,3.1,0,4.66.12.35-.17.39-1,.08-1.28l-.66-.09c-1.51-.27-1.69-.75-1.69-4v-6.52c0-1.24.08-1.78.54-2.31a4,4,0,0,1,3-1.33c2.79,0,3.59,1.78,3.59,4.13v6c0,3.29-.17,3.77-1.69,4l-.71.14c-.3.31-.26,1.11.09,1.28,1.6-.08,3.11-.12,4.58-.12,1.63,0,3.14,0,5.06.12.18-.17.4-1,0-1.28l-1-.14c-1.52-.22-1.7-.7-1.7-4v-6.88c0-3.46-1.68-5.94-5.42-5.94-2.07,0-3.59.79-5.67,2.08a2.59,2.59,0,0,1-1,.44c-.17,0-.44-.26-.71-.66a5.13,5.13,0,0,0-4-1.86c-3,0-4.17,1.06-6.34,2.21-.26,0-.41-.13-.41-.44a17.65,17.65,0,0,1,.1-2,.63.63,0,0,0-.58-.36,29.36,29.36,0,0,1-5.77,2.4,1.15,1.15,0,0,0,0,1l.53.32c1.11.66,1.11,1.19,1.11,3.19Z" transform="translate(0 0)"/><path d="M460.1,153.73c0,3.29-.18,3.77-1.69,4l-.8.14c-.3.31-.27,1.11.09,1.28,1.69-.08,3.15-.12,4.61-.12,1.65,0,3.16,0,4.71.12.36-.17.4-1,.09-1.28l-.66-.09c-1.52-.27-1.69-.75-1.69-4v-5.94c0-1.74,0-2.14.58-2.85a4,4,0,0,1,3.14-1.37c2.58,0,3.38,1.78,3.38,4.13v6c0,3.29-.18,3.77-1.68,4l-.59.09c-.31.31-.26,1.11.09,1.28,1.47-.08,3-.12,4.45-.12,1.64,0,3.1,0,4.66.12.34-.17.39-1,.09-1.28l-.68-.09c-1.5-.27-1.68-.75-1.68-4v-6.52c0-1.24.09-1.78.54-2.31a4,4,0,0,1,3-1.33c2.79,0,3.59,1.78,3.59,4.13v6c0,3.29-.18,3.77-1.69,4l-.71.14c-.31.31-.26,1.11.1,1.28,1.59-.08,3.1-.12,4.56-.12,1.65,0,3.16,0,5.07.12.17-.17.39-1,0-1.28l-1-.14c-1.51-.22-1.68-.7-1.68-4v-6.88c0-3.46-1.7-5.94-5.43-5.94-2.08,0-3.59.79-5.68,2.08a2.44,2.44,0,0,1-1,.44c-.18,0-.44-.26-.71-.66a5.12,5.12,0,0,0-4-1.86c-3,0-4.18,1.06-6.35,2.21-.26,0-.4-.13-.4-.44a19.59,19.59,0,0,1,.09-2,.62.62,0,0,0-.58-.36,29.36,29.36,0,0,1-5.77,2.4,1.15,1.15,0,0,0,0,1l.53.32c1.11.66,1.11,1.19,1.11,3.19Z" transform="translate(0 0)"/><path class="cls-1" d="M505.71,148.49c1.78,0,2.8-.18,3.07-.57a2,2,0,0,0,.22-1c0-3.86-3.37-6-6.66-6-5.94,0-9.36,4.84-9.36,9.86s3.42,8.88,8.56,8.88a8,8,0,0,0,7.5-4.89.86.86,0,0,0-1-.71,4.59,4.59,0,0,1-4.26,2.22c-3.95,0-6.7-3.2-6.7-7.19,0-.53.09-.58.92-.58Zm-7.63-1.77c-.53,0-.61-.14-.61-.31a4.54,4.54,0,0,1,4.34-3.82,2.73,2.73,0,0,1,2.93,2.88,1.14,1.14,0,0,1-.44.94,4.78,4.78,0,0,1-2.17.31Z" transform="translate(0 0)"/><path d="M513.21,153.73c0,3.29-.18,3.77-1.69,4l-.93.14c-.31.31-.26,1.11.09,1.28,1.82-.08,3.33-.12,4.8-.12,1.63,0,3.14,0,5,.12.37-.17.4-1,.09-1.28l-1-.14c-1.5-.22-1.68-.7-1.68-4V134.07c0-1.91,0-4.66.14-6.44a.62.62,0,0,0-.63-.35c-1.77.71-4.08,1.64-5.81,2.13-.31.14-.27.84,0,1l.49.32c1.1.65,1.15,1,1.15,3.94Z" transform="translate(0 0)"/><path class="cls-1" d="M529.75,146.06c0-1.83,0-3.95.14-5.42a.85.85,0,0,0-.63-.36,26,26,0,0,1-5.76,2.4,1.15,1.15,0,0,0,0,1l.52.32c1.11.66,1.11,1.19,1.11,3.18v6.53c0,3.29-.17,3.77-1.67,4l-.81.14c-.32.31-.27,1.11.09,1.28,1.69-.08,3.19-.12,4.66-.12,1.64,0,3.15,0,4.8.12.35-.17.39-1,.08-1.28l-.8-.14c-1.5-.22-1.69-.7-1.69-4Zm-2.35-11a2.8,2.8,0,1,0-2.84-2.8,2.72,2.72,0,0,0,2.84,2.8" transform="translate(0 0)"/><path class="cls-1" d="M547.18,148.49c1.78,0,2.8-.18,3.07-.57a2,2,0,0,0,.22-1c0-3.86-3.37-6-6.66-6-5.94,0-9.36,4.84-9.36,9.86s3.42,8.88,8.57,8.88a8,8,0,0,0,7.49-4.89.86.86,0,0,0-1-.71,4.56,4.56,0,0,1-4.25,2.22c-3.95,0-6.7-3.2-6.7-7.19,0-.53.09-.58.92-.58Zm-7.63-1.77c-.53,0-.62-.14-.62-.31a4.54,4.54,0,0,1,4.35-3.82,2.74,2.74,0,0,1,2.93,2.88,1.12,1.12,0,0,1-.45.94,4.74,4.74,0,0,1-2.17.31Z" transform="translate(0 0)"/><path d="M555.17,153.73c0,3.29-.18,3.77-1.69,4l-.8.14c-.31.31-.27,1.11.09,1.28,1.69-.08,3.15-.12,4.62-.12,1.64,0,3.15,0,5.81.12.35-.17.4-1,.09-1.28l-1.73-.18c-1.56-.18-1.74-.66-1.74-4v-6.08c0-2.18.27-3.19,1.29-3.19a4,4,0,0,1,2.14.83,2.15,2.15,0,0,0,1.2.36,2.44,2.44,0,0,0,2.48-2.57,2.22,2.22,0,0,0-2.44-2.17c-1.51,0-3,1.32-4.35,2.3-.27,0-.44-.22-.44-.53s0-1.16.08-2a.63.63,0,0,0-.62-.41,31.58,31.58,0,0,1-5.59,2.4,1.19,1.19,0,0,0-.05,1l.54.32c1.11.66,1.11,1.19,1.11,3.19Z" transform="translate(0 0)"/><path class="cls-1" d="M370.64,53.38a31.32,31.32,0,0,0-2.83-11.28,43.43,43.43,0,0,0-8.71-12.36,75.39,75.39,0,0,0-14.27-10.56A97.34,97.34,0,0,0,309.1,8.71a120.43,120.43,0,0,0-17.81-.48c-5.49.16-9.91,1-16.39,2.07S261.77,13.89,256.38,16a78.29,78.29,0,0,0-14.49,8.06A60.06,60.06,0,0,0,230.73,35a36.36,36.36,0,0,0-5.34,10.08,43.06,43.06,0,0,0-1.63,7,21.78,21.78,0,0,0-.16,3.86,30.83,30.83,0,0,0,1.68,10c1.69,4.85,5.28,10.4,10.35,15.58S248,91,254.75,94.23a98.19,98.19,0,0,0,19.71,6.42c4.58,1,17.27,2.62,25.82,2.24A125.92,125.92,0,0,0,321,100.27c7.13-1.36,15-4.46,23-8.28s14.54-10.24,18.46-14.86a37.5,37.5,0,0,0,7.29-14.44,34,34,0,0,0,.82-9.31m-13.73,11.1a44.12,44.12,0,0,1-7.61,10.46,57.68,57.68,0,0,1-11.06,8.29,83.51,83.51,0,0,1-16.51,6.91A95.74,95.74,0,0,1,299.46,94c-8.66.33-17.76,0-24.13-1.42S262.32,89.87,254,86a59.26,59.26,0,0,1-17.37-12.2,34.33,34.33,0,0,1-8-13.45,21.64,21.64,0,0,1-1-8.56c.06-1.52.11-5,2.89-11.05,4-8.67,11.55-13.78,12.69-14.59s8.17-5.56,13.73-7.63A101,101,0,0,1,273.7,13.4a139.82,139.82,0,0,1,15.74-1.79,112.69,112.69,0,0,1,14.92.43,114.37,114.37,0,0,1,19.12,3.82,79.91,79.91,0,0,1,15.8,7.07c3.2,1.91,9.09,6.21,12.41,10.19a35.86,35.86,0,0,1,6.59,11.49,27.3,27.3,0,0,1,1.31,7c.1,1.36-.28,8.17-2.68,12.84" transform="translate(0 0)"/><path class="cls-1" d="M272.06,33.23c0-.77,1.09-2.29,3.38-2.4s4.25,1,4.25,2.12-1.25,2.35-3.32,2.51-4.25-.92-4.31-2.23" transform="translate(0 0)"/><path class="cls-1" d="M286.88,29.85c.06,1.25,1.63,2.24,4.14,2.34,1.58.08,3.7-1.14,3.65-2.12s-1.25-2.24-3.43-2.4-4.42.93-4.36,2.18" transform="translate(0 0)"/><path class="cls-1" d="M300.93,31.32c0,1.48,1.64,2.34,3.59,2.45s4.25-.82,4.25-2.12-1.69-2.38-4-2.45c-1.85-.06-3.87,1-3.87,2.12" transform="translate(0 0)"/><path class="cls-1" d="M314.82,26.31c0,2.29,3.21,4.52,7.24,4.42s7.08-1.75,7-4-2.62-4.3-6.87-4.3-7.4,1.63-7.4,3.92" transform="translate(0 0)"/><path class="cls-1" d="M314.65,38.13c0,1.42,1.42,2.23,4,2.4s3.76-1.25,3.76-2.24S321,36,318.58,36c-2.13-.05-3.93,1-3.93,2.18" transform="translate(0 0)"/><path class="cls-1" d="M327,37.31c0-2.12,3.16-4.46,7-4.3s7.24,1.74,7.24,4.2-3.92,4.14-6.91,4.14S327,40,327,37.31" transform="translate(0 0)"/><path class="cls-1" d="M321.14,46.73c0-1.79,2.12-2.34,3.86-2.34s3.82.66,3.87,2.29-2.34,2.18-3.76,2.23-4-.65-4-2.18" transform="translate(0 0)"/><path class="cls-1" d="M333.61,49.68c0-2.34,3.65-4.63,7.3-4.41s7,1.69,7.08,4.35-4.74,4.08-7.52,4-6.86-1.63-6.86-4" transform="translate(0 0)"/><path class="cls-1" d="M322.28,56.43c0-1.53,2.34-2.29,4.08-2.18s3.6.6,3.65,2.13-2.17,2.28-3.7,2.34-4-.49-4-2.29" transform="translate(0 0)"/><path class="cls-1" d="M329.47,65.09c-.13-2.78,4-4.25,7.14-4.25s7.13,1.36,7.08,4.2-4.47,4.18-7.47,4.14-6.64-1.7-6.75-4.09" transform="translate(0 0)"/><path class="cls-1" d="M318.85,75.22c-.06-2.89,3.81-4.25,6.92-4.25s7.35,1.36,7.29,4.3-4.73,4-7.24,4-6.91-1.14-7-4" transform="translate(0 0)"/><path class="cls-1" d="M315.2,65.85c0-2,3-2.29,3.81-2.29s3.92.44,3.92,2.18-2.28,2.35-3.81,2.4-3.92-.76-3.92-2.29" transform="translate(0 0)"/><path class="cls-1" d="M304.74,71.46c0-1.68,2.51-2.34,3.81-2.34s3.88.54,3.92,2.12-1.9,2.35-3.59,2.45-4.14-.54-4.14-2.23" transform="translate(0 0)"/><path class="cls-1" d="M289.39,74.79c.07-2.19,2.61-2.46,3.64-2.46s4,.38,4,2.29-2.78,2.23-3.81,2.29-3.93-.6-3.87-2.12" transform="translate(0 0)"/><path class="cls-1" d="M274.25,73c0-2.18,3.15-2.4,4-2.4s3.81.33,3.76,2.28-3.32,2.24-3.87,2.24-3.86-.44-3.86-2.12" transform="translate(0 0)"/><path class="cls-1" d="M260.52,67.16c0-1.58,2.5-2.34,3.92-2.29s3.87.71,3.87,2.23-2.13,2.35-3.6,2.35-4.19-.71-4.19-2.29" transform="translate(0 0)"/><path class="cls-1" d="M254.15,58.39c-.05-1.74,2.67-2.13,3.81-2.18s4,.55,3.92,2.07-2.07,2.45-3.65,2.45-4-.6-4.08-2.34" transform="translate(0 0)"/><path class="cls-1" d="M256.22,78.87c-.06-2.4,3.26-4.47,7-4.3S270.37,76,270.37,79s-5,4-7.23,3.92-6.87-1.31-6.92-4" transform="translate(0 0)"/><path class="cls-1" d="M279,83.93c0-2.12,3.32-4.36,7.08-4.25s7.25,1.64,7.2,4.14-3.33,4.25-6.76,4.2S279,86.71,279,83.93" transform="translate(0 0)"/><path class="cls-1" d="M299.24,82.74c.05-2.29,3.22-4.42,7-4.31s7.36,1.58,7.3,4.14-3.65,4.09-6.75,4.2-7.57-1.75-7.52-4" transform="translate(0 0)"/><path class="cls-1" d="M253.17,48c.05-2,3.65-2.23,4-2.23s3.76.49,3.76,2.34-3.27,2.29-3.82,2.29-4-.39-4-2.4" transform="translate(0 0)"/><path class="cls-1" d="M259.48,39.16c0-1.52,2.56-2.17,3.76-2.17s3.87.54,3.92,2.12-2,2.4-3.65,2.4-4-.82-4-2.35" transform="translate(0 0)"/><path class="cls-1" d="M250.28,77.29s-7.13-5.72-9.47-10.13S237.54,60,237.1,56.38A22.64,22.64,0,0,1,238.19,46c1.14-3,3.7-8.17,7.08-11.32s8.22-7.19,13-9.37a92.37,92.37,0,0,1,13.4-5,100.49,100.49,0,0,1,13.94-2.51,104.5,104.5,0,0,1,12.14-.22c2.18.11,6.05.44,6.05.44s-10,0-16.24,1.08a103.22,103.22,0,0,0-14.81,3.82A76.39,76.39,0,0,0,260,29.14c-5.17,3-9,7-12.58,11.55s-4.42,9.42-4.9,11.22a28.4,28.4,0,0,0-.16,10.24,35.72,35.72,0,0,0,3.42,9.09c.88,1.36,4.47,6.05,4.47,6.05" transform="translate(0 0)"/><path class="cls-1" d="M349.57,12.91a16.37,16.37,0,0,0,7,2.73,23.89,23.89,0,0,0,10-.17c2.77-.76,5.71-2,7.24-4a5,5,0,0,0,.05-6.09,13,13,0,0,0-6.31-3.77,28.57,28.57,0,0,0-5.72-.92c-.72,0-3.27.17-3.27.17a24.77,24.77,0,0,1,8.34-.77,20.48,20.48,0,0,1,11.86,4.3,6.61,6.61,0,0,1,2.4,6.92,8.64,8.64,0,0,1-4.41,5.39,24.41,24.41,0,0,1-9.26,2.73,28.38,28.38,0,0,1-8.55-.66A20.29,20.29,0,0,1,352.61,16c-1.68-1.26-3.7-3.49-3-3.11" transform="translate(0 0)"/><path class="cls-1" d="M289.55,61.11A35.36,35.36,0,0,1,281.6,60a19.87,19.87,0,0,1-8.83-5.06,6.67,6.67,0,0,1-1.36-6.82c.82-2.23,3.76-5.17,8.93-6.86a35.85,35.85,0,0,1,11.22-1.68,28.16,28.16,0,0,1,10.62,2.06c5.13,2,6.64,4.2,7.52,5.73a6.42,6.42,0,0,1,.76,3.7,6.34,6.34,0,0,1-1,2.72c-.49.55,1.3-2,.32-4.13a9.52,9.52,0,0,0-5.66-5.56,26.26,26.26,0,0,0-10.24-2.51,25.58,25.58,0,0,0-7.3.39,24.12,24.12,0,0,0-9.36,3.75,6.93,6.93,0,0,0-3.11,7.14,10.26,10.26,0,0,0,3.11,4.24,22.45,22.45,0,0,0,5.88,2.83c1.19.39,6.48,1.2,6.48,1.2" transform="translate(0 0)"/><path class="cls-1" d="M267.55,47.17a9,9,0,0,0-1.85,5.44c-.12,3.5,3,7,5,8.5a28.57,28.57,0,0,0,10.45,4.8,43,43,0,0,0,13.51,1.52c3.65-.16,9.75-.77,14.59-2.88s8.83-4.64,10.51-8.67a9.11,9.11,0,0,0-.81-8.39,20.87,20.87,0,0,0-6-5.33,41.49,41.49,0,0,0-8.66-3.27,47.71,47.71,0,0,0-9.53-1.31c-.21,0,4.85.5,7.24,1.15s6.7,2.12,9.32,4.08a12.86,12.86,0,0,1,4.84,6.32,7.88,7.88,0,0,1-.76,5.83c-.81,1.36-1.69,3.21-6,5.56A35.92,35.92,0,0,1,295,64.6c-4.68.27-12.74.49-20.79-3.6s-7.87-8.6-7.85-9.36a11.2,11.2,0,0,1,1.15-4.47" transform="translate(0 0)"/><div xmlns="" id="divScriptsUsed" style="display: none"/><script xmlns="" id="globalVarsDetection" src="moz-extension://1178acc4-c629-45ae-bf28-e0d69b0d6d49/js/wrs_env.js"/></svg>